<svg version="1.1" id="Layer_1" xmlns="http://www.w3.org/2000/svg" xmlns:xlink="http://www.w3.org/1999/xlink" x="0px" y="0px"
	 viewBox="0 0 963.56 164.82" style="enable-background:new 0 0 963.56 164.82;" xml:space="preserve">
<style type="text/css">
	.m,.a,.n,.o,.r{
		stroke: #1B85B7;
    	fill: transparent;
	}
	.sto{
		fill:#fff
	}
	.st1 {
		stroke-dasharray: 1095;
		stroke-dashoffset: 1095;
		animation: line-anime 2s ease forwards, add-fill 2s ease forwards 0.5s;
	}
	.st2 {
		stroke-dasharray: 790;
		stroke-dashoffset: 790;
		animation: line-anime 2s ease forwards 0.4s, add-fill 2s ease forwards 0.9s;
	}
	.st3 {
		stroke-dasharray: 790;
		stroke-dashoffset: 790;
		animation: line-anime 2s ease forwards 0.8s, add-fill 2s ease forwards 1.3s;
	}
	.st4 {
		stroke-dasharray: 790;
		stroke-dashoffset: 790;
		animation: line-anime 2s ease forwards 1.2s, add-fill 2s ease forwards 1.7s;
	}
	.st5 {
		stroke-dasharray: 790;
		stroke-dashoffset: 790;
		animation: line-anime 2s ease forwards 1.6s, add-fill 2s ease forwards 2.1s;
	}
	.st6 {
		stroke-dasharray: 790;
		stroke-dashoffset: 790;
		animation: line-anime 2s ease forwards 2s, add-fill 2s ease forwards 2.5s;
	}

	@keyframes line-anime {
		to {
			stroke-dashoffset:0
		}
	}
	@keyframes add-fill {
		from {
			fill: transparent;
		}
		to {
			fill: #1B85B7;
		}
	}
</style>
<path  class="st1 path1 m" d="M56.91,0.27c0.59-0.11,0.37-0.08,1.11-0.13
	c17.9-1.1,33.01,4.41,46.45,16.01c10.69-10.51,24.36-15.23,39.18-16.01c15.96-0.85,31.58,4.36,43.39,15.23
	C201.29,28.49,205.96,47,206.7,65.78c0.61,15.41,0.18,31,0.16,46.43c-0.01,11.68,1.06,25.74-1.19,37.08
	c-1.97,9.89-10.95,17.71-21.42,14.68c-20.48-5.92-12.86-40.93-12.79-56.1c0.07-13.81-0.07-27.63-1.2-41.4
	c-1.24-15.2-5.82-31.81-24.4-31.48c-13.8,0.25-22.03,11.51-23.91,24.27c-2.74,18.54,0.26,36.83,1.15,55.36
	c0.56,11.62,0.58,28.87-11.99,34.52c-14.93,6.7-24.57-9.14-25.55-21.74c-0.73-9.42,0.47-18.94,0.52-28.35
	c0.1-18.89,6.09-58.96-20.29-63.92c-15.44-2.87-26.31,9.59-29.09,23.4c-2.74,13.59-0.44,27.47-0.2,41.16
	c0.24,13.79,0.31,27.68-0.16,41.46c-0.32,9.2-2.89,19.93-12.86,22.91c-13.65,4.08-22.44-9.2-22.69-21.17
	c-0.55-26.72-1.67-53.75,0.42-80.42C2.45,46.7,5.84,32.45,16.42,20.36C27.01,8.25,41.09,2.4,56.91,0.27z"/>
<path  class="st2 path2 a" d="M221.07,153.2c3,2.05,15.49,5.85,17.2,6.39
	c5.61,1.8,11.33,3.2,17.19,3.89c12.1,1.42,24.58,0.11,36-4.18c1.87-0.7,18.96-8.17,18.52-9.48c1.82,5.4,4.02,10.28,9.46,12.93
	c7.88,3.84,17.37,0.71,21.5-6.97c2.56-4.76,3.11-10.34,3.07-15.74c-0.12-15.17-0.21-30.34-0.69-45.51
	c-0.49-15.59-0.3-31.13-6.45-45.72c-6.18-14.66-16.91-27.38-30.35-35.7c-14.26-8.82-31.03-12.89-47.5-12.08
	c-17.99,0.88-35.62,7.58-49.21,20.28c6.36,13.43,10.74,25.34,11.62,40.3c5.03-8.08,11.04-16.22,19.55-20.92
	c9.05-5.01,20.08-6.66,30.24-4.9c21.09,3.64,36.19,21.15,37.85,42.22c1.55,19.5-8.37,39.5-26.73,47.48c-1.48,0.65-3,1.21-4.55,1.7
	c-13.8,4.36-29.28,2.61-41.35-5.5c-6.55-4.4-11.18-10.16-15.37-16.74V153.2z"/>
<path class="st3 path3 n" d="M372.82,0.15
	c3.58-0.27,7.38-0.05,10.54,1.84c4.98,2.98,6.37,8.25,7.75,13.48c6.48-5.93,15.11-10.04,23.54-12.32c25.58-6.91,54.8-0.6,72.8,19.46
	c19.85,22.13,18.94,52.21,19.14,80.04c0.09,13.1,0.68,26.21-0.17,39.28c-0.41,6.41-1.41,13.32-5.93,17.89
	c-3.24,3.27-8.05,4.85-12.62,4.27c-4.56-0.58-8.78-3.29-11.33-7.11c-3.52-5.28-3.76-12.02-3.68-18.36
	c0.23-19.6,2.38-39.24,0.69-58.77c-1-11.55-3.63-23.58-11.33-32.24c-6.2-6.98-15.3-11.11-24.6-11.87
	c-12.27-1-25.83,3.26-33.94,12.79c-7.34,8.63-10.18,20.23-11.03,31.28c-1.53,19.93,0.47,40.02-0.02,59.98
	c-0.15,6.02-1.04,12.22-4.15,17.39c-3.49,5.8-10.47,8.21-16.99,6.73c-3.12-0.71-5.97-2.37-8.11-4.75c-2.34-2.6-3.57-6.05-4.07-9.52
	c-1.07-7.49-0.22-15.61-0.29-23.17c-0.07-8.12-0.17-16.24-0.28-24.36c-0.21-16.25-0.44-32.49-0.42-48.74c0-1.46,0.01-2.92,0.01-4.39
	c0.03-8.77,0.15-17.54,0.39-26.31c0.14-4.96,0.32-10.91,2.73-15.38C363.79,2.98,368.35,1.37,372.82,0.15z"/>
<g  class="st4 path4 o">
	<path d="M646.97,147.61
		c-28.24,21.56-68.55,21.84-97.37,1.25c-13.79-9.85-23.59-24.14-28.96-40.11c5.81,4.37,13.03,6.96,20.85,6.96
		c6.94,0,13.41-2.04,18.85-5.57c2.84,3.43,5.66,6.85,9.06,9.76c9.24,7.96,21,10.59,32.95,9.57c12.6-1.07,24.17-7.04,32-17.1
		c7.61-9.78,10.59-22.56,9.51-34.79c-0.87-9.86-4.64-19.52-11.16-27.03c-9.91-11.4-24.9-16.63-39.8-15.13
		c-13.31,1.34-22.06,7.78-30.29,17.87c-5.86-4.49-13.18-7.16-21.12-7.16c-7.79,0-14.97,2.57-20.77,6.9c-0.01,0-0.01,0-0.01,0
		c2.7-7.49,6.04-14.22,11.08-20.62c14.8-18.78,37.72-29.86,61.22-31.21c11.29-0.65,22.71,0.94,33.43,4.99
		c22.69,8.57,40.77,27.96,48.29,50.96c0.1,0.32,0.21,0.64,0.31,0.96C685.11,90.05,673.64,127.24,646.97,147.61z"/>
	<circle cx="541.51" cy="80.79" r="24.65"/>
	<g>
		<g>
			<polygon class="sto" points="549.3,65.31 546.38,74.35 539.31,96.28 533.71,96.28 533.71,96.26 536.62,87.23 543.7,65.31 			"/>
			<polygon class="sto" points="549.3,65.31 546.38,74.35 539.31,96.28 533.71,96.28 533.71,96.26 536.62,87.23 543.7,65.31 			"/>
		</g>
		<g>
			<path class="sto" d="M520.9,83.46v-5.33c7.07,0,12.81-5.75,12.81-12.81h5.33C539.04,75.32,530.9,83.46,520.9,83.46z"/>
		</g>
		<path class="sto" d="M535.52,86.88l-2.12,6.58c-1.29-5.72-6.4-10-12.5-10v-5.33c3.46,0,6.7,0.98,9.46,2.67
			c2.16,1.32,4.02,3.09,5.46,5.17L535.52,86.88z"/>
		<path class="sto" d="M562.11,78.13v5.33c-3.46,0-6.7-0.98-9.46-2.67c-2.16-1.33-4.02-3.09-5.46-5.17l2.42-7.5
			C550.9,73.84,556.01,78.13,562.11,78.13z"/>
		<g>
			<path class="sto" d="M549.3,96.27h-5.33c0-10.01,8.14-18.15,18.15-18.15v5.33C555.05,83.46,549.3,89.21,549.3,96.27z"/>
		</g>
	</g>
</g>

<path  class="st5 path5 a" d="M846.74,78.02
	c0.12-9.26,0.49-18.25-2.33-27.22c-7.37-23.45-30.33-39.11-52.64-46.57c-24.78-8.29-53.41-2.71-73.97,13.21
	c-20.26,15.69-31.43,40.51-31.57,65.9c-0.09,15.27,4.27,30.55,12.46,43.45c14.42,22.72,40.33,36.72,67.13,37.31
	c6.48,0.14,12.89-0.54,19.19-2.04c10.2-2.43,19.67-7.14,28.47-12.75c1.72,5.22,3.63,10.58,8.89,13.23
	c4.07,2.04,9.81,1.96,14.03,0.47c13.53-4.78,10.5-22.32,10.65-33.4c0.2-15.02-0.29-30.06-0.35-45.06
	C846.68,82.38,846.71,80.2,846.74,78.02z M813.4,83.45c-0.02,0.84-0.06,1.67-0.13,2.5c-0.06,0.84-0.14,1.67-0.25,2.5
	c-0.1,0.83-0.23,1.66-0.37,2.48c-0.15,0.83-0.31,1.65-0.5,2.46c-0.18,0.82-0.39,1.63-0.61,2.43c-0.22,0.81-0.47,1.61-0.73,2.4
	c-0.27,0.8-0.55,1.59-0.85,2.37c-0.3,0.78-0.62,1.55-0.96,2.31c-0.34,0.77-0.7,1.52-1.08,2.27c-0.37,0.75-0.77,1.48-1.18,2.21
	c-0.41,0.73-0.84,1.45-1.29,2.15c-0.45,0.71-0.91,1.4-1.4,2.09c-0.48,0.68-0.98,1.35-1.49,2.01c-8.22,10.39-20.34,14.67-33.13,16.07
	c-10.97-0.23-20.55-1.89-29.62-8.44c-10.46-7.56-16.96-18.84-18.84-31.57c-0.12-0.8-0.22-1.59-0.29-2.39
	c-0.08-0.81-0.14-1.61-0.18-2.41c-0.03-0.8-0.05-1.61-0.05-2.41c0-0.81,0.02-1.61,0.06-2.42c0.05-0.8,0.11-1.6,0.19-2.4
	c0.08-0.8,0.18-1.6,0.3-2.4c0.12-0.79,0.26-1.58,0.42-2.37c0.16-0.79,0.34-1.57,0.54-2.35c0.2-0.78,0.42-1.56,0.66-2.32
	c0.24-0.77,0.49-1.54,0.77-2.29c0.27-0.76,0.57-1.51,0.88-2.25c0.31-0.74,0.64-1.47,0.99-2.2c0.35-0.72,0.72-1.44,1.1-2.14
	c0.38-0.71,0.79-1.41,1.2-2.1c0.42-0.68,0.86-1.36,1.31-2.02c0.45-0.67,0.92-1.32,1.41-1.96c8.72-11.51,21.56-16.15,35.47-17.99
	c0.17-0.03,0.34-0.06,0.52-0.08c9.97-0.95,21.78,3.62,29.59,9.6c9.67,7.43,15.72,19.13,17.19,31.15c0.1,0.83,0.18,1.66,0.24,2.49
	c0.06,0.84,0.1,1.67,0.12,2.51C813.43,81.78,813.42,82.61,813.4,83.45z"/>

<path class="st6 path6 r" d="M939.26,0.73c1.38-0.05,2.76-0.04,4.13,0.05c7.51,0.46,15.53,3.5,18.79,10.79c2.96,6.62,1.12,15.26-4.78,19.63
	c-7.2,5.34-17.58,4.05-25.99,5.24c-5.67,0.8-11.24,2.41-16.22,5.28c-13.99,8.04-18.71,23.53-19.78,38.73
	c-0.65,9.24-0.22,18.56-0.13,27.82c0,6.71,0.13,13.41,0.19,20.12c0.06,6.57,0.52,13.45-0.64,19.94c-0.73,4.11-2.33,8.17-5.2,11.2
	c-2.81,2.97-6.8,4.82-10.89,4.98c-8.38,0.32-14.48-6.01-16.42-13.69c-1.84-7.27-0.9-14.88-0.81-22.28c0-17.33,0.05-34.78,0.99-52.08
	c1.41-17.64,6.24-34.93,17.76-48.74c10.79-12.93,25.67-20.72,41.96-24.33C927.73,2.15,933.51,0.93,939.26,0.73z"/>
</svg>
